<?xml version="1.0" encoding="UTF-8" standalone="no"?>
<svg
   xmlns="http://www.w3.org/2000/svg"
   height="40"
   width="40"
   viewBox="0 0 40 40"
   version="1.1">
<g
   transform="matrix(0.03673563,0,0,0.03673563,2.0420563,2.0412002)"
   id="g12"><path
     id="path4"
     d="M 869,351 V 894.4 H 97.6 V 123.1 h 596 V 17.9 H 81.8 C 34.9,17.9 10,50.4 10,97.3 V 912 c 0,46.9 45.8,70.1 79.9,70.1 h 806.4 c 44.4,0 60.3,-23.3 60.3,-70.1 V 351 Z" /><path
     id="path6"
     d="M 888.2,263.3 765.4,140.6 302.6,606 l 120,120 z" /><path
     id="path8"
     d="M 204.5,824.3 397.3,754.2 274.6,631.5 Z" /><path
     id="path10"
     d="m 977.6,111.1 -60,-60 c -16.6,-16.6 -43.4,-16.6 -60,0 l -60,60 120,120 60,-60 c 16.5,-16.6 16.5,-43.5 0,-60 z" /></g>
</svg>
