<svg width="40" height="40" viewBox="0 0 40 40" fill="none" xmlns="http://www.w3.org/2000/svg">
  <rect y="-0.000244141" width="40" height="40" rx="8" fill="#F5F5F5" />
  <path d="M29 19.4998C29.0034 20.8197 28.6951 22.1217 28.1 23.2998C27.3944 24.7115 26.3098 25.899 24.9674 26.7291C23.6251 27.5592 22.0782 27.9992 20.5 27.9998C19.1801 28.0032 17.8781 27.6949 16.7 27.0998L11 28.9998L12.9 23.2998C12.3049 22.1217 11.9966 20.8197 12 19.4998C12.0006 17.9215 12.4406 16.3746 13.2707 15.0323C14.1008 13.69 15.2883 12.6054 16.7 11.8998C17.8781 11.3047 19.1801 10.9963 20.5 10.9998H21C23.0843 11.1148 25.053 11.9945 26.5291 13.4706C28.0052 14.9467 28.885 16.9154 29 18.9998V19.4998Z" stroke="#3A424C" stroke-width="2" stroke-linecap="round" stroke-linejoin="round" />
</svg>
